<?xml version="1.0" encoding="UTF-8" standalone="no"?>
<!-- Created with Inkscape (http://www.inkscape.org/) -->

<svg
   width="3650.3115"
   height="486.9491"
   viewBox="0 0 3650.3115 486.9491"
   version="1.1"
   id="svg1"
   xmlns="http://www.w3.org/2000/svg"
   xmlns:svg="http://www.w3.org/2000/svg">
  <defs
     id="defs1" />
  <g
     id="layer1"
     transform="translate(-94.845956,-836.52489)">
    <path
       d="M 94.845952,846.32924 H 265.27815 q 35.29564,0 66.34273,7.51667 31.2105,7.35326 57.51882,21.56956 26.30833,14.2163 47.06086,34.64201 20.91593,20.42572 35.45904,46.40724 14.54312,25.98151 22.22319,57.02858 7.84347,31.0471 7.84347,66.5062 0,35.459 -7.84347,66.5061 -7.68007,31.0471 -22.22319,57.0286 -14.54311,25.9815 -35.45904,46.4072 -20.75253,20.4258 -47.06086,34.6421 -26.30832,14.2163 -57.51882,21.7329 -31.2105,7.3533 -66.34273,7.3533 H 94.845952 Z M 262.99047,1225.1038 q 32.02752,0 57.0286,-9.4776 25.16449,-9.6409 42.32209,-28.1058 17.32101,-18.4648 26.30832,-45.4268 9.15073,-27.1253 9.15073,-62.0941 0,-34.9689 -9.15073,-61.9308 -8.98731,-27.12537 -26.30832,-45.59022 -17.1576,-18.46485 -42.32209,-27.94238 -25.00108,-9.64094 -57.0286,-9.64094 H 197.13795 V 1225.1038 Z M 864.81258,846.32924 v 87.91229 H 645.19526 v 104.41627 h 200.66225 v 83.3369 H 645.19526 v 103.7627 h 225.49993 v 87.9123 H 541.92283 V 846.32924 Z m 466.68582,0 -153.2745,467.34046 H 1033.4464 L 882.45946,846.32924 H 992.59493 L 1107.1424,1238.503 1223.6507,846.32924 Z m 345.9297,0 v 87.91229 h -219.6173 v 104.41627 h 200.6622 v 83.3369 h -200.6622 v 103.7627 h 225.4999 v 87.9123 H 1354.5383 V 846.32924 Z m 142.9791,0 v 379.42816 h 212.4275 v 87.9123 H 1717.1348 V 846.32924 Z m 219.7788,233.67026 q 0,-36.7663 7.5166,-68.9573 7.6801,-32.3543 21.733,-59.31625 14.0529,-27.12535 34.3152,-48.53151 20.2623,-21.40615 45.4268,-36.11267 25.1645,-14.86992 54.9043,-22.7134 29.9033,-7.84347 63.2381,-7.84347 33.3347,0 63.0746,7.84347 29.9032,7.84348 55.0677,22.7134 25.3279,14.70652 45.4268,36.11267 20.2623,21.40616 34.3152,48.53151 14.2163,26.96195 21.733,59.31625 7.68,32.3544 7.68,68.9573 0,36.6028 -7.68,68.9572 -7.5167,32.3543 -21.733,59.4797 -14.0529,26.9619 -34.3152,48.3681 -20.0989,21.4061 -45.4268,36.2761 -25.1645,14.7065 -55.0677,22.5499 -29.7399,7.8435 -63.0746,7.8435 -33.3348,0 -63.2381,-7.8435 -29.7398,-7.8434 -54.9043,-22.5499 -25.1645,-14.87 -45.4268,-36.2761 -20.2623,-21.4062 -34.3152,-48.3681 -14.0529,-27.1254 -21.733,-59.4797 -7.5166,-32.3544 -7.5166,-68.9572 z m 103.926,0 q 0,37.4199 8.1703,66.3427 8.3337,28.9228 24.0207,48.6949 15.6869,19.6087 38.5637,29.7399 23.0402,10.1311 52.4533,10.1311 29.413,0 52.2898,-10.1311 23.0402,-10.1312 38.7272,-29.7399 15.8503,-19.7721 24.0206,-48.6949 8.3337,-28.9228 8.3337,-66.3427 0,-37.42 -8.3337,-66.3428 -8.1703,-28.92279 -24.0206,-48.53148 -15.687,-19.77209 -38.7272,-29.90325 -22.8768,-10.13116 -52.2898,-10.13116 -29.4131,0 -52.4533,10.13116 -22.8768,10.13116 -38.5637,29.90325 -15.687,19.60869 -24.0207,48.53148 -8.1703,28.9228 -8.1703,66.3428 z m 390.7022,-233.67026 h 221.2514 q 26.3083,0 49.8387,5.22899 23.5305,5.06557 43.3026,14.70651 19.7721,9.64094 35.6224,23.53043 15.8504,13.72608 26.962,31.04709 11.1116,17.32101 16.9942,37.91014 5.8826,20.42571 5.8826,43.4659 0,23.0402 -6.046,43.6294 -5.8826,20.4257 -16.9942,37.9101 -10.9482,17.321 -26.7986,31.2105 -15.8503,13.8895 -35.7858,23.6938 -19.7721,9.641 -43.3026,14.8699 -23.367,5.0656 -49.6753,5.0656 h -117.979 v 155.0721 h -103.2724 z m 215.6956,226.97056 q 18.7917,0 33.825,-4.9021 15.0333,-4.9022 25.4913,-14.0529 10.458,-9.1508 16.0137,-22.2232 5.5558,-13.2359 5.5558,-29.9033 0,-16.50396 -5.5558,-29.57642 -5.5557,-13.07245 -15.8503,-22.22318 -10.2946,-9.15072 -25.1645,-13.88949 -14.8699,-4.90217 -33.4982,-4.90217 h -113.2402 v 141.67276 z m 542.3416,-226.97056 v 87.91229 h -219.6173 v 104.41627 h 200.6623 v 83.3369 h -200.6623 v 103.7627 h 225.4999 v 87.9123 H 2969.9617 V 846.32924 Z m 39.7065,467.34046 V 846.16584 h 231.2191 q 39.3808,0 70.5913,9.96775 31.3739,9.96775 53.1068,28.4326 21.8964,18.30144 33.4982,44.44636 11.6018,26.14492 11.6018,58.49926 0,28.26919 -9.1507,51.47279 -9.1507,23.0402 -26.1449,39.7076 -16.8308,16.504 -40.8514,25.9815 -23.8573,9.3142 -53.4337,10.2946 27.9424,1.9609 49.1851,20.5891 21.4062,18.4649 36.7663,52.9435 l 56.2116,125.1688 h -114.5475 l -56.7017,-125.0054 q -6.2095,-13.7261 -12.5823,-22.7134 -6.3728,-9.1507 -14.3797,-14.5431 -8.0069,-5.3924 -18.4648,-7.5167 -10.2946,-2.1243 -24.8377,-2.1243 h -67.8134 v 171.9029 z m 219.2905,-255.2398 q 18.3014,0 32.6811,-4.2485 14.3797,-4.412 24.1841,-12.5823 9.9677,-8.3337 15.1967,-20.2623 5.229,-12.092 5.229,-27.45217 0,-30.39347 -19.9355,-46.40723 -19.9355,-16.01376 -57.5188,-16.01376 h -115.8547 v 126.96626 z"
       id="text1"
       style="font-weight:600;font-size:653.623px;font-family:Nohemi;-inkscape-font-specification:'Nohemi, Semi-Bold';fill:#ffffff;stroke-width:1.10653"
       aria-label="DEVELOPER" />
  </g>
</svg>
